HIERARCHY
ROOT Hips
{
	OFFSET 0.000000 97.167313 0.000000
	CHANNELS 6 Xposition Yposition Zposition Xrotation Yrotation Zrotation
	JOINT Spine
	{
		OFFSET 0.000000 13.784798 0.064400
		CHANNELS 3 Xrotation Yrotation Zrotation
		JOINT Spine1
		{
			OFFSET 0.000000 12.037903 0.404700
			CHANNELS 3 Xrotation Yrotation Zrotation
			JOINT Spine2
			{
				OFFSET 0.000000 17.795601 0.420200
				CHANNELS 3 Xrotation Yrotation Zrotation
				JOINT Neck
				{
					OFFSET 0.000000 39.131302 11.954600
					CHANNELS 3 Xrotation Yrotation Zrotation
					JOINT Head
					{
						OFFSET 0.000000 14.456192 15.627699
						CHANNELS 3 Xrotation Yrotation Zrotation
						JOINT HeadTop_End
						{
							OFFSET 0.000000 15.703506 7.603401
							CHANNELS 3 Xrotation Yrotation Zrotation
							End Site
							{
								OFFSET 0.000000 17.447403 0.000000
							}
						}
					}
				}
				JOINT LeftShoulder
				{
					OFFSET 17.399500 24.608795 1.168800
					CHANNELS 3 Xrotation Yrotation Zrotation
					JOINT LeftArm
					{
						OFFSET 18.980635 5.765305 1.818600
						CHANNELS 3 Xrotation Yrotation Zrotation
						JOINT LeftForeArm
						{
							OFFSET 49.290169 0.000000 0.000000
							CHANNELS 3 Xrotation Yrotation Zrotation
							JOINT LeftHand
							{
								OFFSET 31.562012 0.000000 0.000000
								CHANNELS 3 Xrotation Yrotation Zrotation
								JOINT LeftHandThumb1
								{
									OFFSET 6.133995 -4.388519 7.076070
									CHANNELS 3 Xrotation Yrotation Zrotation
									JOINT LeftHandThumb2
									{
										OFFSET 6.037666 -3.485840 3.485847
										CHANNELS 3 Xrotation Yrotation Zrotation
										JOINT LeftHandThumb3
										{
											OFFSET 6.496506 -3.750763 3.750761
											CHANNELS 3 Xrotation Yrotation Zrotation
											JOINT LeftHandThumb4
											{
												OFFSET 5.616882 -3.242905 3.242910
												CHANNELS 3 Xrotation Yrotation Zrotation
												End Site
												{
													OFFSET -1.254608 7.132141 0.375429
												}
											}
										}
									}
								}
								JOINT LeftHandPinky1
								{
									OFFSET 18.920792 -0.453171 -11.426712
									CHANNELS 3 Xrotation Yrotation Zrotation
									JOINT LeftHandPinky2
									{
										OFFSET 4.919586 0.000000 0.000000
										CHANNELS 3 Xrotation Yrotation Zrotation
										JOINT LeftHandPinky3
										{
											OFFSET 5.233047 0.000000 0.000000
											CHANNELS 3 Xrotation Yrotation Zrotation
											JOINT LeftHandPinky4
											{
												OFFSET 5.571716 0.000000 0.000000
												CHANNELS 3 Xrotation Yrotation Zrotation
												End Site
												{
													OFFSET -3.459808 4.342407 -0.466164
												}
											}
										}
									}
								}
								JOINT LeftHandRing1
								{
									OFFSET 22.726120 -0.094986 -6.500475
									CHANNELS 3 Xrotation Yrotation Zrotation
									JOINT LeftHandRing2
									{
										OFFSET 6.408615 0.000000 0.000000
										CHANNELS 3 Xrotation Yrotation Zrotation
										JOINT LeftHandRing3
										{
											OFFSET 6.150223 0.000000 0.000000
											CHANNELS 3 Xrotation Yrotation Zrotation
											JOINT LeftHandRing4
											{
												OFFSET 6.145386 0.000000 0.000000
												CHANNELS 3 Xrotation Yrotation Zrotation
												End Site
												{
													OFFSET -3.671402 4.923981 -0.202372
												}
											}
										}
									}
								}
								JOINT LeftHandMiddle1
								{
									OFFSET 23.373947 0.000000 0.000001
									CHANNELS 3 Xrotation Yrotation Zrotation
									JOINT LeftHandMiddle2
									{
										OFFSET 6.996567 0.000000 0.000000
										CHANNELS 3 Xrotation Yrotation Zrotation
										JOINT LeftHandMiddle3
										{
											OFFSET 7.015945 0.000000 0.000000
											CHANNELS 3 Xrotation Yrotation Zrotation
											JOINT LeftHandMiddle4
											{
												OFFSET 7.721573 0.000000 0.000000
												CHANNELS 3 Xrotation Yrotation Zrotation
												End Site
												{
													OFFSET -4.651108 6.158463 0.251582
												}
											}
										}
									}
								}
								JOINT LeftHandIndex1
								{
									OFFSET 21.310577 -0.490082 6.209344
									CHANNELS 3 Xrotation Yrotation Zrotation
									JOINT LeftHandIndex2
									{
										OFFSET 7.536453 0.000000 0.000000
										CHANNELS 3 Xrotation Yrotation Zrotation
										JOINT LeftHandIndex3
										{
											OFFSET 7.512344 0.000000 0.000000
											CHANNELS 3 Xrotation Yrotation Zrotation
											JOINT LeftHandIndex4
											{
												OFFSET 10.212402 0.000000 0.000001
												CHANNELS 3 Xrotation Yrotation Zrotation
												End Site
												{
													OFFSET -5.180801 8.690506 1.388433
												}
											}
										}
									}
								}
							}
						}
					}
				}
				JOINT RightShoulder
				{
					OFFSET -17.399500 24.608795 1.168800
					CHANNELS 3 Xrotation Yrotation Zrotation
					JOINT RightArm
					{
						OFFSET -18.980635 5.765305 1.818600
						CHANNELS 3 Xrotation Yrotation Zrotation
						JOINT RightForeArm
						{
							OFFSET -49.290169 0.000000 0.000000
							CHANNELS 3 Xrotation Yrotation Zrotation
							JOINT RightHand
							{
								OFFSET -31.562012 0.000000 0.000000
								CHANNELS 3 Xrotation Yrotation Zrotation
								JOINT RightHandThumb1
								{
									OFFSET -6.133995 -4.388519 7.076070
									CHANNELS 3 Xrotation Yrotation Zrotation
									JOINT RightHandThumb2
									{
										OFFSET -6.037666 -3.485840 3.485847
										CHANNELS 3 Xrotation Yrotation Zrotation
										JOINT RightHandThumb3
										{
											OFFSET -6.496506 -3.750763 3.750761
											CHANNELS 3 Xrotation Yrotation Zrotation
											JOINT RightHandThumb4
											{
												OFFSET -5.616882 -3.242905 3.242910
												CHANNELS 3 Xrotation Yrotation Zrotation
												End Site
												{
													OFFSET 1.254608 7.132141 0.375429
												}
											}
										}
									}
								}
								JOINT RightHandIndex1
								{
									OFFSET -21.310577 -0.490082 6.209344
									CHANNELS 3 Xrotation Yrotation Zrotation
									JOINT RightHandIndex2
									{
										OFFSET -7.536453 0.000000 0.000000
										CHANNELS 3 Xrotation Yrotation Zrotation
										JOINT RightHandIndex3
										{
											OFFSET -7.512344 0.000000 0.000000
											CHANNELS 3 Xrotation Yrotation Zrotation
											JOINT RightHandIndex4
											{
												OFFSET -10.212402 0.000000 0.000001
												CHANNELS 3 Xrotation Yrotation Zrotation
												End Site
												{
													OFFSET 5.180801 8.690506 1.388433
												}
											}
										}
									}
								}
								JOINT RightHandMiddle1
								{
									OFFSET -23.373947 0.000000 0.000001
									CHANNELS 3 Xrotation Yrotation Zrotation
									JOINT RightHandMiddle2
									{
										OFFSET -6.996567 0.000000 0.000000
										CHANNELS 3 Xrotation Yrotation Zrotation
										JOINT RightHandMiddle3
										{
											OFFSET -7.015945 0.000000 0.000000
											CHANNELS 3 Xrotation Yrotation Zrotation
											JOINT RightHandMiddle4
											{
												OFFSET -7.721573 0.000000 0.000000
												CHANNELS 3 Xrotation Yrotation Zrotation
												End Site
												{
													OFFSET 4.651108 6.158463 0.251582
												}
											}
										}
									}
								}
								JOINT RightHandRing1
								{
									OFFSET -22.726120 -0.094986 -6.500475
									CHANNELS 3 Xrotation Yrotation Zrotation
									JOINT RightHandRing2
									{
										OFFSET -6.408615 0.000000 0.000000
										CHANNELS 3 Xrotation Yrotation Zrotation
										JOINT RightHandRing3
										{
											OFFSET -6.150223 0.000000 0.000000
											CHANNELS 3 Xrotation Yrotation Zrotation
											JOINT RightHandRing4
											{
												OFFSET -6.145386 0.000000 0.000000
												CHANNELS 3 Xrotation Yrotation Zrotation
												End Site
												{
													OFFSET 3.671402 4.923981 -0.202372
												}
											}
										}
									}
								}
								JOINT RightHandPinky1
								{
									OFFSET -18.920792 -0.453171 -11.426712
									CHANNELS 3 Xrotation Yrotation Zrotation
									JOINT RightHandPinky2
									{
										OFFSET -4.919586 0.000000 0.000000
										CHANNELS 3 Xrotation Yrotation Zrotation
										JOINT RightHandPinky3
										{
											OFFSET -5.233047 0.000000 0.000000
											CHANNELS 3 Xrotation Yrotation Zrotation
											JOINT RightHandPinky4
											{
												OFFSET -5.571716 0.000000 0.000000
												CHANNELS 3 Xrotation Yrotation Zrotation
												End Site
												{
													OFFSET 3.459808 4.342407 -0.466164
												}
											}
										}
									}
								}
							}
						}
					}
				}
			}
		}
	}
	JOINT LeftUpLeg
	{
		OFFSET 19.899099 -7.885101 -3.429500
		CHANNELS 3 Xrotation Yrotation Zrotation
		JOINT LeftLeg
		{
			OFFSET 1.745560 -36.997807 10.304700
			CHANNELS 3 Xrotation Yrotation Zrotation
			JOINT LeftFoot
			{
				OFFSET -1.745558 -29.803308 -13.615400
				CHANNELS 3 Xrotation Yrotation Zrotation
				JOINT LeftToeBase
				{
					OFFSET 1.181900 -18.539904 15.226099
					CHANNELS 3 Xrotation Yrotation Zrotation
					JOINT LeftToe_End
					{
						OFFSET -0.863701 1.402801 16.534700
						CHANNELS 3 Xrotation Yrotation Zrotation
						End Site
						{
							OFFSET 0.000000 16.616566 0.000000
						}
					}
				}
			}
		}
	}
	JOINT RightUpLeg
	{
		OFFSET -19.899099 -7.885101 -3.429500
		CHANNELS 3 Xrotation Yrotation Zrotation
		JOINT RightLeg
		{
			OFFSET -1.745560 -36.997807 10.304700
			CHANNELS 3 Xrotation Yrotation Zrotation
			JOINT RightFoot
			{
				OFFSET 1.745558 -29.803308 -13.615400
				CHANNELS 3 Xrotation Yrotation Zrotation
				JOINT RightToeBase
				{
					OFFSET -1.181900 -18.539904 15.226099
					CHANNELS 3 Xrotation Yrotation Zrotation
					JOINT RightToe_End
					{
						OFFSET 0.863701 1.402801 16.534700
						CHANNELS 3 Xrotation Yrotation Zrotation
						End Site
						{
							OFFSET 0.000000 16.616566 0.000000
						}
					}
				}
			}
		}
	}
}
MOTION
Frames: 4
Frame Time: 0.033333
-1.463461 78.884926 0.375133 9.549091 -61.629220 10.130329 15.066902 -0.307613 -4.268896 5.872716 0.571218 -2.801487 5.868579 0.648865 -2.855423 -3.633986 1.441667 3.748237 -20.004400 54.833660 2.407548 0.000000 0.000000 -0.000001 1.828131 -3.192641 -12.271557 -39.397798 26.363280 -34.885290 0.423111 -46.824942 0.372412 -10.312912 -0.125870 0.382040 40.109890 -15.297214 -0.360525 5.639884 28.097949 11.338799 1.088468 40.896267 22.734068 0.000005 -0.000001 0.000002 -17.946957 14.755029 -51.485887 8.868396 8.667036 -84.811927 4.540472 8.852574 -59.153017 0.000001 -0.000000 -0.000004 -9.042508 10.045665 -60.766171 8.524074 9.508805 -66.893042 6.576581 9.896764 -70.385072 -0.000004 -0.000001 0.000003 -2.345554 4.688848 -62.655258 8.754160 9.897070 -87.051307 1.995435 4.929307 -37.483412 0.000001 0.000002 0.000007 6.882227 2.840015 -61.140432 8.248002 7.640104 -89.897905 2.146150 8.173466 -41.827754 -0.000002 0.000001 0.000001 0.632569 7.257306 8.700593 7.937668 -9.679782 53.430377 -22.867004 36.193271 17.964902 -27.376443 10.434289 -17.813205 -2.346173 -6.100543 10.731432 2.364070 -23.806298 -8.771066 -5.012424 13.984883 5.861529 0.000001 -0.000001 0.000001 -0.054741 0.532099 0.738702 0.019752 -0.087278 5.078545 -0.003990 -2.004360 -2.834032 -0.000001 0.000000 0.000001 0.348238 -5.918528 2.583785 1.432636 -4.204210 24.052060 0.133915 1.746468 -5.752984 -0.000001 0.000001 -0.000001 1.205833 -11.756080 4.154753 1.794838 -3.771836 26.865431 1.319769 -3.995372 19.486948 -0.000000 0.000002 -0.000005 2.126225 -19.166824 11.319918 3.354748 -2.122225 18.828521 6.367015 -5.015720 28.949186 -0.000000 -0.000001 0.000000 -37.385775 8.996764 29.821460 35.082635 -10.555006 -0.716655 -3.625396 0.155174 -20.668330 -1.833353 0.000562 0.001023 0.000000 0.000000 0.000000 -26.949111 -18.878347 -40.111174 34.582020 9.750314 -0.975161 -14.070083 -3.888702 27.372541 -0.001659 -0.001565 -0.000951 0.000000 -0.000000 -0.000000 
0.100313 76.785095 0.634166 9.441508 -58.116871 9.250078 17.385456 -0.294261 -4.285624 5.900822 0.556414 -2.764025 5.897264 0.634126 -2.814708 -3.496569 0.395017 1.633084 -26.685826 51.292412 7.349548 -0.000000 0.000000 -0.000001 1.673939 -3.554849 -11.338585 -40.662759 20.892184 -35.531593 -1.963513 -45.136636 -1.465008 -7.252706 -0.340480 0.442017 40.109883 -15.297214 -0.360525 5.639881 28.097952 11.338804 1.088470 40.896273 22.734068 0.000001 0.000001 -0.000001 -17.946961 14.755031 -51.485891 8.868403 8.667035 -84.811934 4.540476 8.852571 -59.153017 -0.000000 0.000000 -0.000002 -9.042511 10.045656 -60.766171 8.524077 9.508809 -66.893049 6.576581 9.896760 -70.385072 -0.000001 0.000000 0.000003 -2.345563 4.688849 -62.655258 8.754160 9.897071 -87.051314 1.995434 4.929307 -37.483405 -0.000000 -0.000001 0.000004 6.882222 2.840016 -61.140432 8.248003 7.640100 -89.897905 2.146152 8.173464 -41.827754 -0.000001 0.000005 0.000002 1.325189 7.378045 8.760543 8.796521 -11.890246 53.708759 -21.893061 39.684830 18.200683 -28.454331 7.955135 -18.142214 -2.285419 -5.855714 11.097277 2.165496 -22.766265 -8.443258 -5.832488 14.164595 7.125937 -0.000000 -0.000001 0.000002 -0.031118 1.362206 -4.390741 0.019733 -0.087343 5.107283 0.000876 -1.921153 -3.387666 0.000000 -0.000001 -0.000001 0.346100 -5.749933 1.630284 1.330955 -3.966600 22.445776 0.186438 2.149628 -8.224127 -0.000000 0.000001 -0.000006 1.216799 -11.754762 4.275140 1.685795 -3.572385 25.548644 1.038165 -3.114751 14.173381 -0.000001 -0.000002 -0.000003 2.147629 -19.301481 11.795526 3.303542 -2.004479 18.123866 5.850844 -4.232661 23.426466 -0.000001 -0.000003 -0.000000 -43.508083 5.583982 28.964042 40.011979 -11.022747 -0.860228 -3.099297 -1.566453 -19.165996 -1.833357 0.000558 0.001019 0.000000 0.000001 0.000000 -27.455147 -19.022717 -41.878625 37.789835 10.213897 -0.107726 -15.663193 -6.237394 28.021720 -0.001664 -0.001538 -0.000956 -0.000000 -0.000000 -0.000000 
1.780340 74.489876 0.893592 9.469149 -54.461876 8.433073 22.109065 -0.230544 -4.168895 6.038008 0.531126 -2.642407 6.036204 0.609127 -2.683040 -12.830392 -1.597329 0.850696 -24.298174 48.491768 9.582426 0.000000 0.000000 0.000000 1.419232 -4.565550 -10.173545 -41.503925 12.688666 -33.894862 0.286734 -40.861456 0.151890 -12.759174 -2.658167 0.156076 40.109890 -15.297214 -0.360528 5.639886 28.097952 11.338804 1.088475 40.896267 22.734070 -0.000002 0.000004 -0.000001 -17.946959 14.755034 -51.485887 8.868404 8.667039 -84.811934 4.540474 8.852568 -59.153017 -0.000003 -0.000002 0.000003 -9.042505 10.045664 -60.766171 8.524075 9.508808 -66.893042 6.576587 9.896767 -70.385072 -0.000001 0.000000 0.000005 -2.345553 4.688848 -62.655258 8.754159 9.897073 -87.051314 1.995434 4.929309 -37.483409 -0.000003 -0.000006 0.000004 6.882222 2.840017 -61.140438 8.248002 7.640101 -89.897905 2.146148 8.173461 -41.827751 0.000001 0.000001 0.000001 1.325013 7.378251 8.760535 9.010387 -15.465377 55.114794 -25.068729 41.271118 21.130455 -23.823473 6.960144 -17.486978 -2.218736 -5.583829 11.500905 1.934949 -21.618862 -8.078136 -6.727754 14.338121 8.532628 0.000000 -0.000001 0.000002 0.082630 2.260462 -10.070858 0.019755 -0.087319 5.124492 0.008098 -1.829297 -4.000146 -0.000000 -0.000005 -0.000002 0.343987 -5.560395 0.545351 1.224073 -3.692698 20.619825 0.262532 2.605607 -11.036232 0.000000 0.000002 -0.000004 1.223971 -11.753960 4.339667 1.567849 -3.342316 24.051548 0.826657 -2.086417 8.139364 -0.000002 -0.000000 -0.000003 2.181567 -19.469237 12.043907 3.247566 -1.869705 17.322652 5.416490 -3.274900 17.160056 -0.000000 -0.000001 0.000005 -49.274159 1.145825 27.052300 44.577182 -10.316267 -0.928370 -2.125591 -3.142719 -18.308122 -1.833363 0.000593 0.001018 0.000000 0.000002 -0.000000 -27.899146 -19.187169 -43.697317 41.026368 10.922613 0.593518 -17.230059 -8.834748 28.896918 -0.001662 -0.001565 -0.000929 0.000000 -0.000000 -0.000000 
4.481026 72.727509 1.171681 9.135070 -51.141219 7.022550 25.964744 -0.100654 -3.662780 6.333800 0.525956 -2.415714 6.334908 0.604776 -2.439821 -15.050520 -4.037864 4.697217 -23.430156 48.780781 5.686836 -0.000001 -0.000000 -0.000000 1.164073 -5.874422 -8.882880 -41.222610 4.144320 -31.117232 0.399518 -35.161438 0.123181 -17.535474 -5.454506 -0.225345 40.109890 -15.297211 -0.360529 5.639885 28.097952 11.338805 1.088477 40.896263 22.734068 0.000003 -0.000000 -0.000001 -17.946957 14.755031 -51.485881 8.868405 8.667038 -84.811934 4.540473 8.852568 -59.153017 0.000001 0.000001 0.000001 -9.042503 10.045665 -60.766171 8.524077 9.508808 -66.893042 6.576583 9.896761 -70.385072 0.000003 0.000000 0.000003 -2.345550 4.688848 -62.655258 8.754160 9.897070 -87.051314 1.995434 4.929308 -37.483409 -0.000000 -0.000001 0.000006 6.882231 2.840017 -61.140432 8.248002 7.640104 -89.897905 2.146154 8.173465 -41.827754 0.000002 -0.000000 -0.000001 1.319847 7.377508 8.760090 8.221053 -18.038480 55.685487 -25.973273 42.093626 22.101778 -21.295504 5.655996 -16.587896 -2.164405 -5.359850 11.831008 1.744105 -20.677672 -7.777284 -7.452203 14.460882 9.692120 0.000000 -0.000002 -0.000002 0.242153 2.975431 -14.736589 0.019768 -0.087359 5.165440 0.015515 -1.754081 -4.502516 -0.000000 -0.000001 -0.000001 0.342394 -5.381246 -0.480097 1.131780 -3.430657 18.894991 0.354986 3.032693 -13.695649 -0.000000 -0.000000 -0.000007 1.237607 -11.752487 4.430189 1.462407 -3.121957 22.637349 0.734897 -1.099788 2.442502 -0.000002 -0.000000 -0.000003 2.216578 -19.639441 12.395407 3.197074 -1.741448 16.565483 5.161498 -2.325570 11.249095 0.000004 -0.000002 0.000002 -54.704372 -3.087760 23.968525 47.694955 -8.754849 -0.936000 0.280319 -4.636382 -17.174461 -1.833321 0.000607 0.001011 0.000000 0.000000 0.000000 -28.613741 -19.577318 -45.060001 42.550067 12.623062 1.180230 -16.764054 -11.882118 29.427310 -0.001648 -0.001544 -0.000950 -0.000000 -0.000000 -0.000000 
